<?xml version="1.0" encoding="UTF-8"?>
<svg id="Layer_1" xmlns="http://www.w3.org/2000/svg" version="1.1" viewBox="0 0 32 32">
  <!-- Generator: Adobe Illustrator 30.0.0, SVG Export Plug-In . SVG Version: 2.1.1 Build 123)  -->
  <defs>
    <style>
      .st0 {
        fill: #fff;
        stroke: #0d9488;
        stroke-width: 2.5px;
      }

      .st1 {
        fill: #0f172a;
      }

      .st2 {
        isolation: isolate;
      }
    </style>
  </defs>
  <rect class="st0" x="2" y="2" width="28" height="28" rx="4" ry="4"/>
  <g class="st2">
    <path class="st1" d="M14.53,11.63h2.75v5.53c0,.66-.08,1.3-.24,1.91s-.43,1.19-.8,1.74c-.37.55-.88,1.05-1.51,1.52s-1.42.89-2.37,1.27c-.94.38-2.07.71-3.38.98-.1-.19-.24-.43-.42-.7s-.38-.55-.59-.82-.42-.5-.62-.69c1.2-.19,2.22-.43,3.06-.7s1.53-.58,2.07-.91.96-.69,1.26-1.07.51-.79.62-1.22c.11-.43.17-.88.17-1.33v-5.51ZM7.77,17.39h16.38v2.41H7.77v-2.41ZM7.93,8.67h16.06v2.32H7.93v-2.32ZM9.44,13.28h13.19v5.17h-2.66v-2.92h-8.01v2.92h-2.52s0-5.17,0-5.17ZM11.29,7.43h2.59v5.02h-2.59v-5.02ZM17.13,18.36c.6,1.12,1.52,1.98,2.75,2.6,1.24.62,2.83,1.02,4.77,1.2-.18.19-.38.43-.58.71-.21.28-.41.57-.59.87-.18.3-.33.58-.45.83-1.42-.23-2.64-.58-3.67-1.05s-1.91-1.09-2.65-1.85c-.73-.76-1.36-1.69-1.89-2.78l2.3-.52h.01ZM17.97,7.43h2.61v5.02h-2.61v-5.02Z"/>
  </g>
</svg>